<?xml version="1.0" standalone="no"?>
<!DOCTYPE svg PUBLIC "-//W3C//DTD SVG 20010904//EN"
 "http://www.w3.org/TR/2001/REC-SVG-20010904/DTD/svg10.dtd">
<svg version="1.0" xmlns="http://www.w3.org/2000/svg"
 width="512.000000pt" height="512.000000pt" viewBox="0 0 512.000000 512.000000"
 preserveAspectRatio="xMidYMid meet">
<metadata>
Created by potrace 1.14, written by Peter Selinger 2001-2017
</metadata>
<g transform="translate(0.000000,512.000000) scale(0.100000,-0.100000)"
fill="#000000" stroke="none">
<path d="M2758 4495 c-1 -1 -51 -5 -109 -7 -111 -5 -152 -18 -143 -43 5 -13
-11 -15 -102 -16 -60 0 -116 -2 -124 -3 -8 -2 -35 -6 -60 -9 -69 -10 -94 -15
-183 -43 -87 -28 -270 -110 -275 -125 -2 -5 -8 -9 -13 -9 -12 0 -79 -43 -154
-99 -266 -200 -507 -490 -664 -801 -66 -129 -139 -302 -156 -370 -1 -3 -4 -12
-8 -20 -14 -34 -58 -192 -81 -290 -28 -117 -30 -126 -52 -260 -8 -52 -17 -105
-19 -118 -2 -13 -7 -53 -10 -90 -4 -37 -8 -83 -11 -102 -6 -56 -16 -267 -17
-360 -1 -488 115 -843 334 -1021 58 -47 178 -119 199 -119 9 0 20 -4 26 -9 24
-24 248 -80 379 -96 127 -15 431 -21 555 -11 25 2 83 7 130 10 47 4 94 8 105
10 11 2 45 7 75 10 60 7 75 9 200 32 47 9 96 18 110 21 14 2 61 13 105 24 44
12 87 22 95 24 26 5 273 86 310 102 147 61 207 89 294 136 466 252 846 661
981 1058 34 99 54 196 61 299 4 47 7 86 8 87 1 2 19 -13 39 -32 20 -19 42 -35
47 -35 35 0 54 246 37 473 -4 49 -9 92 -11 96 -3 4 -7 25 -10 47 -3 21 -14 73
-26 114 -11 41 -24 89 -29 105 -19 70 -93 220 -149 299 -78 112 -142 168 -247
217 -52 24 -95 49 -95 55 0 5 28 39 63 75 110 114 250 272 332 374 44 55 86
106 93 113 25 27 32 49 19 60 -31 25 -194 84 -269 98 -32 5 -41 2 -63 -21 -14
-16 -25 -32 -25 -37 0 -5 -30 -70 -66 -145 -65 -134 -131 -241 -196 -317 l-34
-39 -42 88 c-75 153 -123 210 -277 324 -91 67 -100 73 -190 122 -50 27 -202
91 -250 105 -128 37 -214 53 -325 60 -47 3 -90 7 -97 9 -6 2 -13 2 -15 0z"/>
</g>
</svg>
